<svg xmlns="http://www.w3.org/2000/svg" width="32" height="32" viewBox="0 0 32 32" fill="none" stroke="currentColor" stroke-width="2" stroke-linecap="round" stroke-linejoin="round">
  <path d="M20 4C16.686 4 14 6.686 14 10C14 10.9 14.19 11.75 14.53 12.52L4.5 22.55C3.83 23.22 3.5 24.1 3.5 25C3.5 26.93 5.07 28.5 7 28.5C7.9 28.5 8.78 28.17 9.45 27.5L19.48 17.47C20.25 17.81 21.1 18 22 18C25.314 18 28 15.314 28 12C28 11.31 27.87 10.64 27.64 10.02L24 13.66L20.34 13.66L18.34 11.66L18.34 8L22 4.36C21.38 4.13 20.71 4 20 4Z"/>
</svg>
